<mxfile host="Electron" agent="Mozilla/5.0 (Macintosh; Intel Mac OS X 10_15_7) AppleWebKit/537.36 (KHTML, like Gecko) draw.io/24.7.8 Chrome/128.0.6613.36 Electron/32.0.1 Safari/537.36" version="24.7.8">
  <diagram name="Page-1" id="COIMcmizyOsq3R5Z6-rN">
    <mxGraphModel dx="3585" dy="3235" grid="1" gridSize="10" guides="1" tooltips="1" connect="1" arrows="1" fold="1" page="1" pageScale="1" pageWidth="850" pageHeight="1100" math="0" shadow="0">
      <root>
        <mxCell id="0" />
        <mxCell id="1" parent="0" />
        <mxCell id="djqoltV3w1aKw3omuYEH-1" value="" style="whiteSpace=wrap;html=1;aspect=fixed;" vertex="1" parent="1">
          <mxGeometry x="40" y="-1030" width="410" height="410" as="geometry" />
        </mxCell>
        <mxCell id="djqoltV3w1aKw3omuYEH-2" value="Start" style="ellipse;whiteSpace=wrap;html=1;fillColor=#d5e8d4;strokeColor=#82b366;" vertex="1" parent="1">
          <mxGeometry x="80" y="-1010" width="120" height="80" as="geometry" />
        </mxCell>
        <mxCell id="djqoltV3w1aKw3omuYEH-55" style="edgeStyle=orthogonalEdgeStyle;rounded=0;orthogonalLoop=1;jettySize=auto;html=1;" edge="1" parent="1" source="djqoltV3w1aKw3omuYEH-3" target="djqoltV3w1aKw3omuYEH-10">
          <mxGeometry relative="1" as="geometry" />
        </mxCell>
        <mxCell id="djqoltV3w1aKw3omuYEH-3" value="User enters Activity Suggestion details&amp;nbsp;" style="shape=parallelogram;perimeter=parallelogramPerimeter;whiteSpace=wrap;html=1;fixedSize=1;fillColor=#dae8fc;strokeColor=#6c8ebf;" vertex="1" parent="1">
          <mxGeometry x="210" y="-445" width="160" height="95" as="geometry" />
        </mxCell>
        <mxCell id="djqoltV3w1aKw3omuYEH-4" value="Decision" style="rhombus;whiteSpace=wrap;html=1;fillColor=#e1d5e7;strokeColor=#9673a6;" vertex="1" parent="1">
          <mxGeometry x="290" y="-760" width="100" height="90" as="geometry" />
        </mxCell>
        <mxCell id="djqoltV3w1aKw3omuYEH-5" value="Process" style="shape=process;whiteSpace=wrap;html=1;backgroundOutline=1;" vertex="1" parent="1">
          <mxGeometry x="80" y="-750" width="120" height="60" as="geometry" />
        </mxCell>
        <mxCell id="djqoltV3w1aKw3omuYEH-6" value="Output" style="shape=parallelogram;perimeter=parallelogramPerimeter;whiteSpace=wrap;html=1;fixedSize=1;fillColor=#fff2cc;strokeColor=#d6b656;" vertex="1" parent="1">
          <mxGeometry x="260" y="-887.5" width="140" height="85" as="geometry" />
        </mxCell>
        <mxCell id="djqoltV3w1aKw3omuYEH-7" value="End" style="ellipse;whiteSpace=wrap;html=1;fillColor=#f8cecc;strokeColor=#b85450;" vertex="1" parent="1">
          <mxGeometry x="275" y="-1010" width="130" height="100" as="geometry" />
        </mxCell>
        <mxCell id="djqoltV3w1aKw3omuYEH-54" style="edgeStyle=orthogonalEdgeStyle;rounded=0;orthogonalLoop=1;jettySize=auto;html=1;entryX=0;entryY=0.5;entryDx=0;entryDy=0;" edge="1" parent="1" source="djqoltV3w1aKw3omuYEH-8" target="djqoltV3w1aKw3omuYEH-3">
          <mxGeometry relative="1" as="geometry" />
        </mxCell>
        <mxCell id="djqoltV3w1aKw3omuYEH-8" value="Activity Suggestion" style="ellipse;whiteSpace=wrap;html=1;aspect=fixed;" vertex="1" parent="1">
          <mxGeometry x="40" y="-456.25" width="120" height="120" as="geometry" />
        </mxCell>
        <mxCell id="djqoltV3w1aKw3omuYEH-9" value="Input" style="shape=parallelogram;perimeter=parallelogramPerimeter;whiteSpace=wrap;html=1;fixedSize=1;fillColor=#dae8fc;strokeColor=#6c8ebf;" vertex="1" parent="1">
          <mxGeometry x="70" y="-890" width="130" height="70" as="geometry" />
        </mxCell>
        <mxCell id="djqoltV3w1aKw3omuYEH-56" style="edgeStyle=orthogonalEdgeStyle;rounded=0;orthogonalLoop=1;jettySize=auto;html=1;entryX=0;entryY=0.5;entryDx=0;entryDy=0;" edge="1" parent="1" source="djqoltV3w1aKw3omuYEH-10" target="djqoltV3w1aKw3omuYEH-13">
          <mxGeometry relative="1" as="geometry" />
        </mxCell>
        <mxCell id="djqoltV3w1aKw3omuYEH-59" value="yes" style="edgeLabel;html=1;align=center;verticalAlign=middle;resizable=0;points=[];" vertex="1" connectable="0" parent="djqoltV3w1aKw3omuYEH-56">
          <mxGeometry x="-0.012" y="5" relative="1" as="geometry">
            <mxPoint x="-2" y="-4" as="offset" />
          </mxGeometry>
        </mxCell>
        <mxCell id="djqoltV3w1aKw3omuYEH-65" style="edgeStyle=orthogonalEdgeStyle;rounded=0;orthogonalLoop=1;jettySize=auto;html=1;" edge="1" parent="1" source="djqoltV3w1aKw3omuYEH-10" target="djqoltV3w1aKw3omuYEH-11">
          <mxGeometry relative="1" as="geometry" />
        </mxCell>
        <mxCell id="djqoltV3w1aKw3omuYEH-66" value="no" style="edgeLabel;html=1;align=center;verticalAlign=middle;resizable=0;points=[];" vertex="1" connectable="0" parent="djqoltV3w1aKw3omuYEH-65">
          <mxGeometry x="-0.4087" y="5" relative="1" as="geometry">
            <mxPoint as="offset" />
          </mxGeometry>
        </mxCell>
        <mxCell id="djqoltV3w1aKw3omuYEH-10" value="User entered all required fields?&lt;br&gt;Activity, category, address, total hrs or total mins" style="rhombus;whiteSpace=wrap;html=1;fillColor=#e1d5e7;strokeColor=#9673a6;" vertex="1" parent="1">
          <mxGeometry x="420" y="-470" width="210" height="145" as="geometry" />
        </mxCell>
        <mxCell id="djqoltV3w1aKw3omuYEH-11" value="Display required field error message" style="shape=parallelogram;perimeter=parallelogramPerimeter;whiteSpace=wrap;html=1;fixedSize=1;fillColor=#fff2cc;strokeColor=#d6b656;" vertex="1" parent="1">
          <mxGeometry x="435" y="-267.5" width="180" height="105" as="geometry" />
        </mxCell>
        <mxCell id="djqoltV3w1aKw3omuYEH-57" style="edgeStyle=orthogonalEdgeStyle;rounded=0;orthogonalLoop=1;jettySize=auto;html=1;" edge="1" parent="1" source="djqoltV3w1aKw3omuYEH-13" target="djqoltV3w1aKw3omuYEH-16">
          <mxGeometry relative="1" as="geometry" />
        </mxCell>
        <mxCell id="djqoltV3w1aKw3omuYEH-60" value="" style="edgeStyle=orthogonalEdgeStyle;rounded=0;orthogonalLoop=1;jettySize=auto;html=1;" edge="1" parent="1" source="djqoltV3w1aKw3omuYEH-13" target="djqoltV3w1aKw3omuYEH-16">
          <mxGeometry relative="1" as="geometry" />
        </mxCell>
        <mxCell id="djqoltV3w1aKw3omuYEH-61" value="yes" style="edgeLabel;html=1;align=center;verticalAlign=middle;resizable=0;points=[];" vertex="1" connectable="0" parent="djqoltV3w1aKw3omuYEH-60">
          <mxGeometry x="-0.5072" y="5" relative="1" as="geometry">
            <mxPoint as="offset" />
          </mxGeometry>
        </mxCell>
        <mxCell id="djqoltV3w1aKw3omuYEH-67" style="edgeStyle=orthogonalEdgeStyle;rounded=0;orthogonalLoop=1;jettySize=auto;html=1;" edge="1" parent="1" source="djqoltV3w1aKw3omuYEH-13" target="djqoltV3w1aKw3omuYEH-14">
          <mxGeometry relative="1" as="geometry" />
        </mxCell>
        <mxCell id="djqoltV3w1aKw3omuYEH-68" value="no" style="edgeLabel;html=1;align=center;verticalAlign=middle;resizable=0;points=[];" vertex="1" connectable="0" parent="djqoltV3w1aKw3omuYEH-67">
          <mxGeometry x="-0.3504" y="5" relative="1" as="geometry">
            <mxPoint y="1" as="offset" />
          </mxGeometry>
        </mxCell>
        <mxCell id="djqoltV3w1aKw3omuYEH-13" value="User entered a valid address" style="rhombus;whiteSpace=wrap;html=1;fillColor=#e1d5e7;strokeColor=#9673a6;" vertex="1" parent="1">
          <mxGeometry x="740" y="-468.75" width="210" height="145" as="geometry" />
        </mxCell>
        <mxCell id="djqoltV3w1aKw3omuYEH-14" value="Display invalid address error message" style="shape=parallelogram;perimeter=parallelogramPerimeter;whiteSpace=wrap;html=1;fixedSize=1;fillColor=#fff2cc;strokeColor=#d6b656;" vertex="1" parent="1">
          <mxGeometry x="760" y="-265" width="170" height="105" as="geometry" />
        </mxCell>
        <mxCell id="djqoltV3w1aKw3omuYEH-15" value="GeoLocation API" style="shape=process;whiteSpace=wrap;html=1;backgroundOutline=1;" vertex="1" parent="1">
          <mxGeometry x="790" y="-690" width="120" height="60" as="geometry" />
        </mxCell>
        <mxCell id="djqoltV3w1aKw3omuYEH-69" style="edgeStyle=orthogonalEdgeStyle;rounded=0;orthogonalLoop=1;jettySize=auto;html=1;entryX=0.5;entryY=0;entryDx=0;entryDy=0;" edge="1" parent="1" source="djqoltV3w1aKw3omuYEH-16" target="djqoltV3w1aKw3omuYEH-17">
          <mxGeometry relative="1" as="geometry" />
        </mxCell>
        <mxCell id="djqoltV3w1aKw3omuYEH-70" value="no" style="edgeLabel;html=1;align=center;verticalAlign=middle;resizable=0;points=[];" vertex="1" connectable="0" parent="djqoltV3w1aKw3omuYEH-69">
          <mxGeometry x="-0.2899" y="3" relative="1" as="geometry">
            <mxPoint y="1" as="offset" />
          </mxGeometry>
        </mxCell>
        <mxCell id="djqoltV3w1aKw3omuYEH-16" value="user entered total hrs not greater than 8?" style="rhombus;whiteSpace=wrap;html=1;fillColor=#e1d5e7;strokeColor=#9673a6;" vertex="1" parent="1">
          <mxGeometry x="1065" y="-468.75" width="210" height="145" as="geometry" />
        </mxCell>
        <mxCell id="djqoltV3w1aKw3omuYEH-77" style="edgeStyle=orthogonalEdgeStyle;rounded=0;orthogonalLoop=1;jettySize=auto;html=1;" edge="1" parent="1" source="djqoltV3w1aKw3omuYEH-17" target="djqoltV3w1aKw3omuYEH-3">
          <mxGeometry relative="1" as="geometry">
            <Array as="points">
              <mxPoint x="1170" y="120" />
              <mxPoint x="290" y="120" />
            </Array>
          </mxGeometry>
        </mxCell>
        <mxCell id="djqoltV3w1aKw3omuYEH-17" value="Display error message &quot;Total hr value should be less than 8&quot;" style="shape=parallelogram;perimeter=parallelogramPerimeter;whiteSpace=wrap;html=1;fixedSize=1;fillColor=#fff2cc;strokeColor=#d6b656;" vertex="1" parent="1">
          <mxGeometry x="1075" y="-270" width="190" height="110" as="geometry" />
        </mxCell>
        <mxCell id="djqoltV3w1aKw3omuYEH-63" style="edgeStyle=orthogonalEdgeStyle;rounded=0;orthogonalLoop=1;jettySize=auto;html=1;entryX=0;entryY=0.5;entryDx=0;entryDy=0;" edge="1" parent="1" source="djqoltV3w1aKw3omuYEH-18" target="djqoltV3w1aKw3omuYEH-20">
          <mxGeometry relative="1" as="geometry" />
        </mxCell>
        <mxCell id="djqoltV3w1aKw3omuYEH-64" value="yes" style="edgeLabel;html=1;align=center;verticalAlign=middle;resizable=0;points=[];" vertex="1" connectable="0" parent="djqoltV3w1aKw3omuYEH-63">
          <mxGeometry x="-0.6" y="-2" relative="1" as="geometry">
            <mxPoint as="offset" />
          </mxGeometry>
        </mxCell>
        <mxCell id="djqoltV3w1aKw3omuYEH-72" style="edgeStyle=orthogonalEdgeStyle;rounded=0;orthogonalLoop=1;jettySize=auto;html=1;" edge="1" parent="1" source="djqoltV3w1aKw3omuYEH-18" target="djqoltV3w1aKw3omuYEH-19">
          <mxGeometry relative="1" as="geometry" />
        </mxCell>
        <mxCell id="djqoltV3w1aKw3omuYEH-87" value="no" style="edgeLabel;html=1;align=center;verticalAlign=middle;resizable=0;points=[];" vertex="1" connectable="0" parent="djqoltV3w1aKw3omuYEH-72">
          <mxGeometry x="-0.2462" y="5" relative="1" as="geometry">
            <mxPoint as="offset" />
          </mxGeometry>
        </mxCell>
        <mxCell id="djqoltV3w1aKw3omuYEH-18" value="user entered total mins not greater than 60?" style="rhombus;whiteSpace=wrap;html=1;fillColor=#e1d5e7;strokeColor=#9673a6;" vertex="1" parent="1">
          <mxGeometry x="1420" y="-477.5" width="210" height="145" as="geometry" />
        </mxCell>
        <mxCell id="djqoltV3w1aKw3omuYEH-19" value="Display error message &lt;br&gt;&quot;Minute value should be less than 60 mins&quot;" style="shape=parallelogram;perimeter=parallelogramPerimeter;whiteSpace=wrap;html=1;fixedSize=1;fillColor=#fff2cc;strokeColor=#d6b656;" vertex="1" parent="1">
          <mxGeometry x="1425" y="-267.5" width="200" height="125" as="geometry" />
        </mxCell>
        <mxCell id="djqoltV3w1aKw3omuYEH-73" style="edgeStyle=orthogonalEdgeStyle;rounded=0;orthogonalLoop=1;jettySize=auto;html=1;" edge="1" parent="1" source="djqoltV3w1aKw3omuYEH-20" target="djqoltV3w1aKw3omuYEH-21">
          <mxGeometry relative="1" as="geometry" />
        </mxCell>
        <mxCell id="djqoltV3w1aKw3omuYEH-86" value="no" style="edgeLabel;html=1;align=center;verticalAlign=middle;resizable=0;points=[];" vertex="1" connectable="0" parent="djqoltV3w1aKw3omuYEH-73">
          <mxGeometry x="-0.6166" relative="1" as="geometry">
            <mxPoint as="offset" />
          </mxGeometry>
        </mxCell>
        <mxCell id="djqoltV3w1aKw3omuYEH-80" style="edgeStyle=orthogonalEdgeStyle;rounded=0;orthogonalLoop=1;jettySize=auto;html=1;entryX=0;entryY=0.5;entryDx=0;entryDy=0;" edge="1" parent="1" source="djqoltV3w1aKw3omuYEH-20" target="djqoltV3w1aKw3omuYEH-37">
          <mxGeometry relative="1" as="geometry" />
        </mxCell>
        <mxCell id="djqoltV3w1aKw3omuYEH-85" value="yes" style="edgeLabel;html=1;align=center;verticalAlign=middle;resizable=0;points=[];" vertex="1" connectable="0" parent="djqoltV3w1aKw3omuYEH-80">
          <mxGeometry x="-0.4603" y="-4" relative="1" as="geometry">
            <mxPoint as="offset" />
          </mxGeometry>
        </mxCell>
        <mxCell id="djqoltV3w1aKw3omuYEH-20" value="user a number value in the cost field?&amp;nbsp;" style="rhombus;whiteSpace=wrap;html=1;fillColor=#e1d5e7;strokeColor=#9673a6;" vertex="1" parent="1">
          <mxGeometry x="1780" y="-477.5" width="210" height="145" as="geometry" />
        </mxCell>
        <mxCell id="djqoltV3w1aKw3omuYEH-74" style="edgeStyle=orthogonalEdgeStyle;rounded=0;orthogonalLoop=1;jettySize=auto;html=1;" edge="1" parent="1" source="djqoltV3w1aKw3omuYEH-21" target="djqoltV3w1aKw3omuYEH-3">
          <mxGeometry relative="1" as="geometry">
            <Array as="points">
              <mxPoint x="1885" y="190" />
              <mxPoint x="220" y="190" />
            </Array>
          </mxGeometry>
        </mxCell>
        <mxCell id="djqoltV3w1aKw3omuYEH-21" value="Display error message &lt;br&gt;&quot;Cost value should be a number&quot;" style="shape=parallelogram;perimeter=parallelogramPerimeter;whiteSpace=wrap;html=1;fixedSize=1;fillColor=#fff2cc;strokeColor=#d6b656;" vertex="1" parent="1">
          <mxGeometry x="1785" y="-256.87" width="200" height="103.75" as="geometry" />
        </mxCell>
        <mxCell id="djqoltV3w1aKw3omuYEH-82" style="edgeStyle=orthogonalEdgeStyle;rounded=0;orthogonalLoop=1;jettySize=auto;html=1;entryX=0;entryY=0.5;entryDx=0;entryDy=0;" edge="1" parent="1" source="djqoltV3w1aKw3omuYEH-22" target="djqoltV3w1aKw3omuYEH-23">
          <mxGeometry relative="1" as="geometry" />
        </mxCell>
        <mxCell id="djqoltV3w1aKw3omuYEH-22" value="Display undecided list with newly added activity suggestion" style="shape=parallelogram;perimeter=parallelogramPerimeter;whiteSpace=wrap;html=1;fixedSize=1;fillColor=#fff2cc;strokeColor=#d6b656;" vertex="1" parent="1">
          <mxGeometry x="2410" y="-471.25" width="190" height="132.5" as="geometry" />
        </mxCell>
        <mxCell id="djqoltV3w1aKw3omuYEH-84" style="edgeStyle=orthogonalEdgeStyle;rounded=0;orthogonalLoop=1;jettySize=auto;html=1;" edge="1" parent="1" source="djqoltV3w1aKw3omuYEH-23" target="djqoltV3w1aKw3omuYEH-38">
          <mxGeometry relative="1" as="geometry" />
        </mxCell>
        <mxCell id="djqoltV3w1aKw3omuYEH-90" value="yes" style="edgeLabel;html=1;align=center;verticalAlign=middle;resizable=0;points=[];" vertex="1" connectable="0" parent="djqoltV3w1aKw3omuYEH-84">
          <mxGeometry x="-0.5069" y="2" relative="1" as="geometry">
            <mxPoint as="offset" />
          </mxGeometry>
        </mxCell>
        <mxCell id="djqoltV3w1aKw3omuYEH-88" style="edgeStyle=orthogonalEdgeStyle;rounded=0;orthogonalLoop=1;jettySize=auto;html=1;" edge="1" parent="1" source="djqoltV3w1aKw3omuYEH-23" target="djqoltV3w1aKw3omuYEH-29">
          <mxGeometry relative="1" as="geometry" />
        </mxCell>
        <mxCell id="djqoltV3w1aKw3omuYEH-91" value="no" style="edgeLabel;html=1;align=center;verticalAlign=middle;resizable=0;points=[];" vertex="1" connectable="0" parent="djqoltV3w1aKw3omuYEH-88">
          <mxGeometry x="-0.3414" y="-2" relative="1" as="geometry">
            <mxPoint y="1" as="offset" />
          </mxGeometry>
        </mxCell>
        <mxCell id="djqoltV3w1aKw3omuYEH-23" value="user clicked liked or disliked button in one of the activity suggestions items?&amp;nbsp;" style="rhombus;whiteSpace=wrap;html=1;fillColor=#e1d5e7;strokeColor=#9673a6;" vertex="1" parent="1">
          <mxGeometry x="2810" y="-478.75" width="210" height="145" as="geometry" />
        </mxCell>
        <mxCell id="djqoltV3w1aKw3omuYEH-24" value="Reload &quot;Undecided List&quot; with the liked/disliked activity removed from the list&amp;nbsp;" style="shape=parallelogram;perimeter=parallelogramPerimeter;whiteSpace=wrap;html=1;fixedSize=1;fillColor=#fff2cc;strokeColor=#d6b656;" vertex="1" parent="1">
          <mxGeometry x="3770" y="-468.75" width="190" height="122.5" as="geometry" />
        </mxCell>
        <mxCell id="djqoltV3w1aKw3omuYEH-89" style="edgeStyle=orthogonalEdgeStyle;rounded=0;orthogonalLoop=1;jettySize=auto;html=1;" edge="1" parent="1" source="djqoltV3w1aKw3omuYEH-29" target="djqoltV3w1aKw3omuYEH-44">
          <mxGeometry relative="1" as="geometry" />
        </mxCell>
        <mxCell id="djqoltV3w1aKw3omuYEH-94" value="no" style="edgeLabel;html=1;align=center;verticalAlign=middle;resizable=0;points=[];" vertex="1" connectable="0" parent="djqoltV3w1aKw3omuYEH-89">
          <mxGeometry x="-0.6968" y="3" relative="1" as="geometry">
            <mxPoint as="offset" />
          </mxGeometry>
        </mxCell>
        <mxCell id="djqoltV3w1aKw3omuYEH-92" style="edgeStyle=orthogonalEdgeStyle;rounded=0;orthogonalLoop=1;jettySize=auto;html=1;" edge="1" parent="1" source="djqoltV3w1aKw3omuYEH-29" target="djqoltV3w1aKw3omuYEH-30">
          <mxGeometry relative="1" as="geometry" />
        </mxCell>
        <mxCell id="djqoltV3w1aKw3omuYEH-93" value="yes" style="edgeLabel;html=1;align=center;verticalAlign=middle;resizable=0;points=[];" vertex="1" connectable="0" parent="djqoltV3w1aKw3omuYEH-92">
          <mxGeometry x="-0.4603" y="-3" relative="1" as="geometry">
            <mxPoint as="offset" />
          </mxGeometry>
        </mxCell>
        <mxCell id="djqoltV3w1aKw3omuYEH-29" value="user clicked Liked List button from the menu?" style="rhombus;whiteSpace=wrap;html=1;fillColor=#e1d5e7;strokeColor=#9673a6;" vertex="1" parent="1">
          <mxGeometry x="2810" y="-210" width="210" height="145" as="geometry" />
        </mxCell>
        <mxCell id="djqoltV3w1aKw3omuYEH-100" style="edgeStyle=orthogonalEdgeStyle;rounded=0;orthogonalLoop=1;jettySize=auto;html=1;entryX=0;entryY=0.5;entryDx=0;entryDy=0;" edge="1" parent="1" source="djqoltV3w1aKw3omuYEH-30" target="djqoltV3w1aKw3omuYEH-33">
          <mxGeometry relative="1" as="geometry" />
        </mxCell>
        <mxCell id="djqoltV3w1aKw3omuYEH-30" value="Display Liked Activity suggestion list&amp;nbsp;" style="shape=parallelogram;perimeter=parallelogramPerimeter;whiteSpace=wrap;html=1;fixedSize=1;fillColor=#fff2cc;strokeColor=#d6b656;" vertex="1" parent="1">
          <mxGeometry x="3115" y="-198.75" width="190" height="122.5" as="geometry" />
        </mxCell>
        <mxCell id="djqoltV3w1aKw3omuYEH-101" style="edgeStyle=orthogonalEdgeStyle;rounded=0;orthogonalLoop=1;jettySize=auto;html=1;" edge="1" parent="1" source="djqoltV3w1aKw3omuYEH-33" target="djqoltV3w1aKw3omuYEH-39">
          <mxGeometry relative="1" as="geometry" />
        </mxCell>
        <mxCell id="djqoltV3w1aKw3omuYEH-102" value="yes" style="edgeLabel;html=1;align=center;verticalAlign=middle;resizable=0;points=[];" vertex="1" connectable="0" parent="djqoltV3w1aKw3omuYEH-101">
          <mxGeometry x="-0.3556" y="-1" relative="1" as="geometry">
            <mxPoint as="offset" />
          </mxGeometry>
        </mxCell>
        <mxCell id="djqoltV3w1aKw3omuYEH-103" style="edgeStyle=orthogonalEdgeStyle;rounded=0;orthogonalLoop=1;jettySize=auto;html=1;" edge="1" parent="1" source="djqoltV3w1aKw3omuYEH-33" target="djqoltV3w1aKw3omuYEH-40">
          <mxGeometry relative="1" as="geometry" />
        </mxCell>
        <mxCell id="djqoltV3w1aKw3omuYEH-104" value="no" style="edgeLabel;html=1;align=center;verticalAlign=middle;resizable=0;points=[];" vertex="1" connectable="0" parent="djqoltV3w1aKw3omuYEH-103">
          <mxGeometry x="-0.2863" y="5" relative="1" as="geometry">
            <mxPoint as="offset" />
          </mxGeometry>
        </mxCell>
        <mxCell id="djqoltV3w1aKw3omuYEH-33" value="user clicked&amp;nbsp; like button in one of the activity suggestion items?&amp;nbsp;" style="rhombus;whiteSpace=wrap;html=1;fillColor=#e1d5e7;strokeColor=#9673a6;" vertex="1" parent="1">
          <mxGeometry x="3410" y="-210" width="210" height="145" as="geometry" />
        </mxCell>
        <mxCell id="djqoltV3w1aKw3omuYEH-34" value="Reload reload &quot;Liked List&quot; with the liked/disliked activity removed from the list&amp;nbsp;" style="shape=parallelogram;perimeter=parallelogramPerimeter;whiteSpace=wrap;html=1;fixedSize=1;fillColor=#fff2cc;strokeColor=#d6b656;" vertex="1" parent="1">
          <mxGeometry x="4080" y="-220" width="190" height="122.5" as="geometry" />
        </mxCell>
        <mxCell id="djqoltV3w1aKw3omuYEH-81" style="edgeStyle=orthogonalEdgeStyle;rounded=0;orthogonalLoop=1;jettySize=auto;html=1;" edge="1" parent="1" source="djqoltV3w1aKw3omuYEH-37" target="djqoltV3w1aKw3omuYEH-22">
          <mxGeometry relative="1" as="geometry" />
        </mxCell>
        <mxCell id="djqoltV3w1aKw3omuYEH-37" value="Save to database newly added activity suggestion" style="shape=process;whiteSpace=wrap;html=1;backgroundOutline=1;" vertex="1" parent="1">
          <mxGeometry x="2100" y="-468.75" width="170" height="125" as="geometry" />
        </mxCell>
        <mxCell id="djqoltV3w1aKw3omuYEH-99" style="edgeStyle=orthogonalEdgeStyle;rounded=0;orthogonalLoop=1;jettySize=auto;html=1;entryX=0;entryY=0.5;entryDx=0;entryDy=0;" edge="1" parent="1" source="djqoltV3w1aKw3omuYEH-38" target="djqoltV3w1aKw3omuYEH-24">
          <mxGeometry relative="1" as="geometry" />
        </mxCell>
        <mxCell id="djqoltV3w1aKw3omuYEH-38" value="Update database to reflect user selection activity suggestion item is flagged to liked or disliked&amp;nbsp;" style="shape=process;whiteSpace=wrap;html=1;backgroundOutline=1;" vertex="1" parent="1">
          <mxGeometry x="3115" y="-472.5" width="205" height="132.5" as="geometry" />
        </mxCell>
        <mxCell id="djqoltV3w1aKw3omuYEH-39" value="Update database to remove user selection . activity suggestion item is flagged to undecided for the user" style="shape=process;whiteSpace=wrap;html=1;backgroundOutline=1;" vertex="1" parent="1">
          <mxGeometry x="3770" y="-188.13" width="160" height="101.25" as="geometry" />
        </mxCell>
        <mxCell id="djqoltV3w1aKw3omuYEH-105" style="edgeStyle=orthogonalEdgeStyle;rounded=0;orthogonalLoop=1;jettySize=auto;html=1;" edge="1" parent="1" source="djqoltV3w1aKw3omuYEH-40" target="djqoltV3w1aKw3omuYEH-41">
          <mxGeometry relative="1" as="geometry" />
        </mxCell>
        <mxCell id="djqoltV3w1aKw3omuYEH-106" value="yes" style="edgeLabel;html=1;align=center;verticalAlign=middle;resizable=0;points=[];" vertex="1" connectable="0" parent="djqoltV3w1aKw3omuYEH-105">
          <mxGeometry x="-0.4667" y="2" relative="1" as="geometry">
            <mxPoint as="offset" />
          </mxGeometry>
        </mxCell>
        <mxCell id="djqoltV3w1aKw3omuYEH-107" style="edgeStyle=orthogonalEdgeStyle;rounded=0;orthogonalLoop=1;jettySize=auto;html=1;" edge="1" parent="1" source="djqoltV3w1aKw3omuYEH-40" target="djqoltV3w1aKw3omuYEH-46">
          <mxGeometry relative="1" as="geometry" />
        </mxCell>
        <mxCell id="djqoltV3w1aKw3omuYEH-108" value="no" style="edgeLabel;html=1;align=center;verticalAlign=middle;resizable=0;points=[];" vertex="1" connectable="0" parent="djqoltV3w1aKw3omuYEH-107">
          <mxGeometry x="-0.2417" y="3" relative="1" as="geometry">
            <mxPoint as="offset" />
          </mxGeometry>
        </mxCell>
        <mxCell id="djqoltV3w1aKw3omuYEH-40" value="user clicked&amp;nbsp; dislike button in one of the activity suggestion items?&amp;nbsp;" style="rhombus;whiteSpace=wrap;html=1;fillColor=#e1d5e7;strokeColor=#9673a6;" vertex="1" parent="1">
          <mxGeometry x="3410" y="20" width="210" height="145" as="geometry" />
        </mxCell>
        <mxCell id="djqoltV3w1aKw3omuYEH-42" style="edgeStyle=orthogonalEdgeStyle;rounded=0;orthogonalLoop=1;jettySize=auto;html=1;" edge="1" parent="1" source="djqoltV3w1aKw3omuYEH-41" target="djqoltV3w1aKw3omuYEH-34">
          <mxGeometry relative="1" as="geometry" />
        </mxCell>
        <mxCell id="djqoltV3w1aKw3omuYEH-41" value="Update database to remove user selection . activity suggestion item is flagged to disliked for the user" style="shape=process;whiteSpace=wrap;html=1;backgroundOutline=1;" vertex="1" parent="1">
          <mxGeometry x="3770" y="41.88" width="160" height="101.25" as="geometry" />
        </mxCell>
        <mxCell id="djqoltV3w1aKw3omuYEH-43" style="edgeStyle=orthogonalEdgeStyle;rounded=0;orthogonalLoop=1;jettySize=auto;html=1;entryX=0.053;entryY=0.663;entryDx=0;entryDy=0;entryPerimeter=0;" edge="1" parent="1" source="djqoltV3w1aKw3omuYEH-39" target="djqoltV3w1aKw3omuYEH-34">
          <mxGeometry relative="1" as="geometry" />
        </mxCell>
        <mxCell id="djqoltV3w1aKw3omuYEH-95" style="edgeStyle=orthogonalEdgeStyle;rounded=0;orthogonalLoop=1;jettySize=auto;html=1;" edge="1" parent="1" source="djqoltV3w1aKw3omuYEH-44" target="djqoltV3w1aKw3omuYEH-45">
          <mxGeometry relative="1" as="geometry" />
        </mxCell>
        <mxCell id="djqoltV3w1aKw3omuYEH-96" value="yes" style="edgeLabel;html=1;align=center;verticalAlign=middle;resizable=0;points=[];" vertex="1" connectable="0" parent="djqoltV3w1aKw3omuYEH-95">
          <mxGeometry x="-0.2632" relative="1" as="geometry">
            <mxPoint as="offset" />
          </mxGeometry>
        </mxCell>
        <mxCell id="djqoltV3w1aKw3omuYEH-97" style="edgeStyle=orthogonalEdgeStyle;rounded=0;orthogonalLoop=1;jettySize=auto;html=1;" edge="1" parent="1" source="djqoltV3w1aKw3omuYEH-44" target="djqoltV3w1aKw3omuYEH-22">
          <mxGeometry relative="1" as="geometry" />
        </mxCell>
        <mxCell id="djqoltV3w1aKw3omuYEH-98" value="no" style="edgeLabel;html=1;align=center;verticalAlign=middle;resizable=0;points=[];" vertex="1" connectable="0" parent="djqoltV3w1aKw3omuYEH-97">
          <mxGeometry x="-0.7711" y="3" relative="1" as="geometry">
            <mxPoint as="offset" />
          </mxGeometry>
        </mxCell>
        <mxCell id="djqoltV3w1aKw3omuYEH-121" style="edgeStyle=orthogonalEdgeStyle;rounded=0;orthogonalLoop=1;jettySize=auto;html=1;" edge="1" parent="1" source="djqoltV3w1aKw3omuYEH-44" target="djqoltV3w1aKw3omuYEH-120">
          <mxGeometry relative="1" as="geometry" />
        </mxCell>
        <mxCell id="djqoltV3w1aKw3omuYEH-44" value="user clicked Disliked List button from the menu?" style="rhombus;whiteSpace=wrap;html=1;fillColor=#e1d5e7;strokeColor=#9673a6;" vertex="1" parent="1">
          <mxGeometry x="2810" y="245" width="210" height="145" as="geometry" />
        </mxCell>
        <mxCell id="djqoltV3w1aKw3omuYEH-118" style="edgeStyle=orthogonalEdgeStyle;rounded=0;orthogonalLoop=1;jettySize=auto;html=1;" edge="1" parent="1" source="djqoltV3w1aKw3omuYEH-45" target="djqoltV3w1aKw3omuYEH-46">
          <mxGeometry relative="1" as="geometry" />
        </mxCell>
        <mxCell id="djqoltV3w1aKw3omuYEH-45" value="Display Disliked Activity suggestion list" style="shape=parallelogram;perimeter=parallelogramPerimeter;whiteSpace=wrap;html=1;fixedSize=1;fillColor=#fff2cc;strokeColor=#d6b656;" vertex="1" parent="1">
          <mxGeometry x="3105" y="256.25" width="190" height="122.5" as="geometry" />
        </mxCell>
        <mxCell id="djqoltV3w1aKw3omuYEH-109" style="edgeStyle=orthogonalEdgeStyle;rounded=0;orthogonalLoop=1;jettySize=auto;html=1;" edge="1" parent="1" source="djqoltV3w1aKw3omuYEH-46" target="djqoltV3w1aKw3omuYEH-51">
          <mxGeometry relative="1" as="geometry" />
        </mxCell>
        <mxCell id="djqoltV3w1aKw3omuYEH-110" value="yes" style="edgeLabel;html=1;align=center;verticalAlign=middle;resizable=0;points=[];" vertex="1" connectable="0" parent="djqoltV3w1aKw3omuYEH-109">
          <mxGeometry x="-0.3131" relative="1" as="geometry">
            <mxPoint as="offset" />
          </mxGeometry>
        </mxCell>
        <mxCell id="djqoltV3w1aKw3omuYEH-111" style="edgeStyle=orthogonalEdgeStyle;rounded=0;orthogonalLoop=1;jettySize=auto;html=1;" edge="1" parent="1" source="djqoltV3w1aKw3omuYEH-46" target="djqoltV3w1aKw3omuYEH-49">
          <mxGeometry relative="1" as="geometry" />
        </mxCell>
        <mxCell id="djqoltV3w1aKw3omuYEH-46" value="user clicked&amp;nbsp; like button in one of the activity suggestion items?&amp;nbsp;" style="rhombus;whiteSpace=wrap;html=1;fillColor=#e1d5e7;strokeColor=#9673a6;" vertex="1" parent="1">
          <mxGeometry x="3410" y="245" width="210" height="145" as="geometry" />
        </mxCell>
        <mxCell id="djqoltV3w1aKw3omuYEH-47" value="Reload reload &quot;Disliked List&quot; with the liked/disliked activity removed from the list&amp;nbsp;" style="shape=parallelogram;perimeter=parallelogramPerimeter;whiteSpace=wrap;html=1;fixedSize=1;fillColor=#fff2cc;strokeColor=#d6b656;" vertex="1" parent="1">
          <mxGeometry x="4120" y="256.25" width="190" height="122.5" as="geometry" />
        </mxCell>
        <mxCell id="djqoltV3w1aKw3omuYEH-119" style="edgeStyle=orthogonalEdgeStyle;rounded=0;orthogonalLoop=1;jettySize=auto;html=1;" edge="1" parent="1" source="djqoltV3w1aKw3omuYEH-48" target="djqoltV3w1aKw3omuYEH-47">
          <mxGeometry relative="1" as="geometry" />
        </mxCell>
        <mxCell id="djqoltV3w1aKw3omuYEH-48" value="Update database to remove user selection . activity suggestion item is flagged to undecided for the user" style="shape=process;whiteSpace=wrap;html=1;backgroundOutline=1;" vertex="1" parent="1">
          <mxGeometry x="3780" y="521.87" width="160" height="101.25" as="geometry" />
        </mxCell>
        <mxCell id="djqoltV3w1aKw3omuYEH-112" value="" style="edgeStyle=orthogonalEdgeStyle;rounded=0;orthogonalLoop=1;jettySize=auto;html=1;" edge="1" parent="1" source="djqoltV3w1aKw3omuYEH-49" target="djqoltV3w1aKw3omuYEH-46">
          <mxGeometry relative="1" as="geometry" />
        </mxCell>
        <mxCell id="djqoltV3w1aKw3omuYEH-113" value="no" style="edgeLabel;html=1;align=center;verticalAlign=middle;resizable=0;points=[];" vertex="1" connectable="0" parent="djqoltV3w1aKw3omuYEH-112">
          <mxGeometry x="0.2364" y="3" relative="1" as="geometry">
            <mxPoint as="offset" />
          </mxGeometry>
        </mxCell>
        <mxCell id="djqoltV3w1aKw3omuYEH-114" style="edgeStyle=orthogonalEdgeStyle;rounded=0;orthogonalLoop=1;jettySize=auto;html=1;" edge="1" parent="1" source="djqoltV3w1aKw3omuYEH-49" target="djqoltV3w1aKw3omuYEH-48">
          <mxGeometry relative="1" as="geometry" />
        </mxCell>
        <mxCell id="djqoltV3w1aKw3omuYEH-115" value="yes" style="edgeLabel;html=1;align=center;verticalAlign=middle;resizable=0;points=[];" vertex="1" connectable="0" parent="djqoltV3w1aKw3omuYEH-114">
          <mxGeometry x="-0.375" y="2" relative="1" as="geometry">
            <mxPoint as="offset" />
          </mxGeometry>
        </mxCell>
        <mxCell id="djqoltV3w1aKw3omuYEH-116" style="edgeStyle=orthogonalEdgeStyle;rounded=0;orthogonalLoop=1;jettySize=auto;html=1;" edge="1" parent="1" source="djqoltV3w1aKw3omuYEH-49" target="djqoltV3w1aKw3omuYEH-45">
          <mxGeometry relative="1" as="geometry" />
        </mxCell>
        <mxCell id="djqoltV3w1aKw3omuYEH-117" value="no" style="edgeLabel;html=1;align=center;verticalAlign=middle;resizable=0;points=[];" vertex="1" connectable="0" parent="djqoltV3w1aKw3omuYEH-116">
          <mxGeometry x="-0.6367" y="-2" relative="1" as="geometry">
            <mxPoint as="offset" />
          </mxGeometry>
        </mxCell>
        <mxCell id="djqoltV3w1aKw3omuYEH-49" value="user clicked&amp;nbsp; dislike button in one of the activity suggestion items?&amp;nbsp;" style="rhombus;whiteSpace=wrap;html=1;fillColor=#e1d5e7;strokeColor=#9673a6;" vertex="1" parent="1">
          <mxGeometry x="3410" y="500" width="210" height="145" as="geometry" />
        </mxCell>
        <mxCell id="djqoltV3w1aKw3omuYEH-50" style="edgeStyle=orthogonalEdgeStyle;rounded=0;orthogonalLoop=1;jettySize=auto;html=1;" edge="1" source="djqoltV3w1aKw3omuYEH-51" target="djqoltV3w1aKw3omuYEH-47" parent="1">
          <mxGeometry relative="1" as="geometry" />
        </mxCell>
        <mxCell id="djqoltV3w1aKw3omuYEH-51" value="Update database to remove user selection . activity suggestion item is flagged to disliked for the user" style="shape=process;whiteSpace=wrap;html=1;backgroundOutline=1;" vertex="1" parent="1">
          <mxGeometry x="3785" y="266.87" width="160" height="101.25" as="geometry" />
        </mxCell>
        <mxCell id="djqoltV3w1aKw3omuYEH-58" style="edgeStyle=orthogonalEdgeStyle;rounded=0;orthogonalLoop=1;jettySize=auto;html=1;entryX=0.119;entryY=0.571;entryDx=0;entryDy=0;entryPerimeter=0;" edge="1" parent="1" source="djqoltV3w1aKw3omuYEH-16" target="djqoltV3w1aKw3omuYEH-18">
          <mxGeometry relative="1" as="geometry" />
        </mxCell>
        <mxCell id="djqoltV3w1aKw3omuYEH-62" value="yes" style="edgeLabel;html=1;align=center;verticalAlign=middle;resizable=0;points=[];" vertex="1" connectable="0" parent="djqoltV3w1aKw3omuYEH-58">
          <mxGeometry x="-0.2605" relative="1" as="geometry">
            <mxPoint as="offset" />
          </mxGeometry>
        </mxCell>
        <mxCell id="djqoltV3w1aKw3omuYEH-76" style="edgeStyle=orthogonalEdgeStyle;rounded=0;orthogonalLoop=1;jettySize=auto;html=1;entryX=0.354;entryY=0.968;entryDx=0;entryDy=0;entryPerimeter=0;" edge="1" parent="1" source="djqoltV3w1aKw3omuYEH-19" target="djqoltV3w1aKw3omuYEH-3">
          <mxGeometry relative="1" as="geometry">
            <Array as="points">
              <mxPoint x="1525" y="160" />
              <mxPoint x="263" y="160" />
              <mxPoint x="263" y="-353" />
            </Array>
          </mxGeometry>
        </mxCell>
        <mxCell id="djqoltV3w1aKw3omuYEH-78" style="edgeStyle=orthogonalEdgeStyle;rounded=0;orthogonalLoop=1;jettySize=auto;html=1;entryX=0.667;entryY=0.951;entryDx=0;entryDy=0;entryPerimeter=0;" edge="1" parent="1" source="djqoltV3w1aKw3omuYEH-14" target="djqoltV3w1aKw3omuYEH-3">
          <mxGeometry relative="1" as="geometry">
            <Array as="points">
              <mxPoint x="845" y="80" />
              <mxPoint x="317" y="80" />
            </Array>
          </mxGeometry>
        </mxCell>
        <mxCell id="djqoltV3w1aKw3omuYEH-79" style="edgeStyle=orthogonalEdgeStyle;rounded=0;orthogonalLoop=1;jettySize=auto;html=1;entryX=0.833;entryY=1.021;entryDx=0;entryDy=0;entryPerimeter=0;" edge="1" parent="1" source="djqoltV3w1aKw3omuYEH-11" target="djqoltV3w1aKw3omuYEH-3">
          <mxGeometry relative="1" as="geometry" />
        </mxCell>
        <mxCell id="djqoltV3w1aKw3omuYEH-123" style="edgeStyle=orthogonalEdgeStyle;rounded=0;orthogonalLoop=1;jettySize=auto;html=1;" edge="1" parent="1" source="djqoltV3w1aKw3omuYEH-120" target="djqoltV3w1aKw3omuYEH-122">
          <mxGeometry relative="1" as="geometry" />
        </mxCell>
        <mxCell id="djqoltV3w1aKw3omuYEH-124" value="yes" style="edgeLabel;html=1;align=center;verticalAlign=middle;resizable=0;points=[];" vertex="1" connectable="0" parent="djqoltV3w1aKw3omuYEH-123">
          <mxGeometry x="-0.2264" y="-3" relative="1" as="geometry">
            <mxPoint y="1" as="offset" />
          </mxGeometry>
        </mxCell>
        <mxCell id="djqoltV3w1aKw3omuYEH-120" value="user clicked Itinerary button from the menu?" style="rhombus;whiteSpace=wrap;html=1;fillColor=#e1d5e7;strokeColor=#9673a6;" vertex="1" parent="1">
          <mxGeometry x="2810" y="628" width="210" height="145" as="geometry" />
        </mxCell>
        <mxCell id="djqoltV3w1aKw3omuYEH-122" value="itinerary" style="ellipse;whiteSpace=wrap;html=1;aspect=fixed;" vertex="1" parent="1">
          <mxGeometry x="2855" y="960" width="120" height="120" as="geometry" />
        </mxCell>
        <mxCell id="djqoltV3w1aKw3omuYEH-125" style="edgeStyle=orthogonalEdgeStyle;rounded=0;orthogonalLoop=1;jettySize=auto;html=1;entryX=0.105;entryY=1.028;entryDx=0;entryDy=0;entryPerimeter=0;" edge="1" parent="1" source="djqoltV3w1aKw3omuYEH-120" target="djqoltV3w1aKw3omuYEH-22">
          <mxGeometry relative="1" as="geometry" />
        </mxCell>
      </root>
    </mxGraphModel>
  </diagram>
</mxfile>
